# Blender 3.5.1
# www.blender.org
mtllib frame.mtl
o cube
v 0.812500 0.125000 0.062500
v 0.812500 0.125000 -0.062500
v 0.812500 0.000000 0.062500
v 0.812500 -0.000000 -0.062500
v -1.000000 0.125000 -0.062500
v -1.000000 0.125000 0.062500
v -1.000000 -0.000000 -0.062500
v -1.000000 0.000000 0.062500
v 0.812500 2.187500 0.062500
v 0.812500 2.187500 -0.062500
v 0.812500 2.062500 0.062500
v 0.812500 2.062500 -0.062500
v -1.000000 2.187500 -0.062500
v -1.000000 2.187500 0.062500
v -1.000000 2.062500 -0.062500
v -1.000000 2.062500 0.062500
v -0.875000 2.187500 0.062500
v -0.875000 2.187500 -0.062500
v -0.875000 0.000000 0.062500
v -0.875000 -0.000000 -0.062500
v -1.000000 2.187500 -0.062500
v -1.000000 2.187500 0.062500
v -1.000000 -0.000000 -0.062500
v -1.000000 0.000000 0.062500
v 0.812500 2.187500 0.062500
v 0.812500 2.187500 -0.062500
v 0.812500 0.000000 0.062500
v 0.812500 -0.000000 -0.062500
v 0.687500 2.187500 -0.062500
v 0.687500 2.187500 0.062500
v 0.687500 -0.000000 -0.062500
v 0.687500 0.000000 0.062500
v 0.812500 2.187500 0.125000
v 0.812500 2.187500 -0.000000
v 0.812500 0.000000 0.125000
v 0.812500 0.000000 0.000000
v -0.875000 2.187500 -0.000000
v -0.875000 2.187500 0.125000
v -0.875000 0.000000 0.000000
v -0.875000 0.000000 0.125000
vn -0.0000 -0.0000 -1.0000
vn 1.0000 -0.0000 -0.0000
vn -0.0000 -0.0000 1.0000
vn -1.0000 -0.0000 -0.0000
vn -0.0000 1.0000 -0.0000
vn -0.0000 -1.0000 -0.0000
vt 0.000000 0.664062
vt 0.484375 0.664062
vt 0.015625 0.679688
vt 0.015625 0.664062
vt 0.000000 0.648438
vt 0.484375 0.648438
vt 0.242188 0.679688
vt 0.015625 0.648438
vt 0.242188 0.664062
vt 0.242188 0.664062
vt 0.242188 0.679688
vt 0.257812 0.664062
vt 0.468750 0.664062
vt 0.242188 0.648438
vt 0.257812 0.648438
vt 0.468750 0.679688
vt 0.000000 0.695312
vt 0.484375 0.695312
vt 0.015625 0.710938
vt 0.015625 0.695312
vt 0.000000 0.679688
vt 0.484375 0.679688
vt 0.242188 0.710938
vt 0.015625 0.679688
vt 0.242188 0.695312
vt 0.242188 0.695312
vt 0.242188 0.710938
vt 0.257812 0.695312
vt 0.468750 0.695312
vt 0.242188 0.679688
vt 0.257812 0.679688
vt 0.468750 0.710938
vt 0.062500 0.632812
vt 0.125000 0.632812
vt 0.078125 0.648438
vt 0.078125 0.632812
vt 0.062500 0.359375
vt 0.125000 0.359375
vt 0.093750 0.648438
vt 0.078125 0.359375
vt 0.093750 0.632812
vt 0.093750 0.632812
vt 0.093750 0.648438
vt 0.109375 0.632812
vt 0.109375 0.632812
vt 0.093750 0.359375
vt 0.109375 0.359375
vt 0.109375 0.648438
vt 0.000000 0.632812
vt 0.062500 0.632812
vt 0.015625 0.648438
vt 0.015625 0.632812
vt 0.000000 0.359375
vt 0.062500 0.359375
vt 0.031250 0.648438
vt 0.015625 0.359375
vt 0.031250 0.632812
vt 0.031250 0.632812
vt 0.031250 0.648438
vt 0.046875 0.632812
vt 0.046875 0.632812
vt 0.031250 0.359375
vt 0.046875 0.359375
vt 0.046875 0.648438
vt 0.000000 0.984375
vt 0.453125 0.984375
vt 0.015625 1.000000
vt 0.015625 0.984375
vt 0.000000 0.710938
vt 0.453125 0.710938
vt 0.226562 1.000000
vt 0.015625 0.710938
vt 0.226562 0.984375
vt 0.226562 0.984375
vt 0.226562 1.000000
vt 0.242188 0.984375
vt 0.437500 0.984375
vt 0.226562 0.710938
vt 0.242188 0.710938
vt 0.437500 1.000000
s 0
usemtl m_63028d4f-57f6-07ee-14ee-ae9c72246f02
f 7/14/1 2/4/1 4/8/1
f 4/8/2 1/1/2 3/5/2
f 3/6/3 6/12/3 8/15/3
f 8/15/4 5/10/4 7/14/4
f 1/3/5 5/10/5 6/11/5
f 4/9/6 8/16/6 7/13/6
f 15/30/1 10/20/1 12/24/1
f 12/24/2 9/17/2 11/21/2
f 11/22/3 14/28/3 16/31/3
f 16/31/4 13/26/4 15/30/4
f 9/19/5 13/26/5 14/27/5
f 12/25/6 16/32/6 15/29/6
f 23/46/1 18/36/1 20/40/1
f 20/40/2 17/33/2 19/37/2
f 19/38/3 22/44/3 24/47/3
f 24/47/4 21/42/4 23/46/4
f 17/35/5 21/42/5 22/43/5
f 20/41/6 24/48/6 23/45/6
f 31/62/1 26/52/1 28/56/1
f 28/56/2 25/49/2 27/53/2
f 27/54/3 30/60/3 32/63/3
f 32/63/4 29/58/4 31/62/4
f 25/51/5 29/58/5 30/59/5
f 28/57/6 32/64/6 31/61/6
f 39/78/1 34/68/1 36/72/1
f 36/72/2 33/65/2 35/69/2
f 35/70/3 38/76/3 40/79/3
f 40/79/4 37/74/4 39/78/4
f 33/67/5 37/74/5 38/75/5
f 36/73/6 40/80/6 39/77/6
f 7/14/1 5/10/1 2/4/1
f 4/8/2 2/4/2 1/1/2
f 3/6/3 1/2/3 6/12/3
f 8/15/4 6/12/4 5/10/4
f 1/3/5 2/4/5 5/10/5
f 4/9/6 3/7/6 8/16/6
f 15/30/1 13/26/1 10/20/1
f 12/24/2 10/20/2 9/17/2
f 11/22/3 9/18/3 14/28/3
f 16/31/4 14/28/4 13/26/4
f 9/19/5 10/20/5 13/26/5
f 12/25/6 11/23/6 16/32/6
f 23/46/1 21/42/1 18/36/1
f 20/40/2 18/36/2 17/33/2
f 19/38/3 17/34/3 22/44/3
f 24/47/4 22/44/4 21/42/4
f 17/35/5 18/36/5 21/42/5
f 20/41/6 19/39/6 24/48/6
f 31/62/1 29/58/1 26/52/1
f 28/56/2 26/52/2 25/49/2
f 27/54/3 25/50/3 30/60/3
f 32/63/4 30/60/4 29/58/4
f 25/51/5 26/52/5 29/58/5
f 28/57/6 27/55/6 32/64/6
f 39/78/1 37/74/1 34/68/1
f 36/72/2 34/68/2 33/65/2
f 35/70/3 33/66/3 38/76/3
f 40/79/4 38/76/4 37/74/4
f 33/67/5 34/68/5 37/74/5
f 36/73/6 35/71/6 40/80/6
