# Blender 3.5.1
# www.blender.org
mtllib table.mtl
o Cube.001
v 2.178199 3.449710 -3.119815
v 2.178199 2.954863 -3.119815
v 2.178199 3.449710 3.119815
v 2.178199 2.954863 3.119815
v -2.178199 3.449710 -3.119815
v -2.178199 2.954863 -3.119815
v -2.178199 3.449710 3.119815
v -2.178199 2.954863 3.119815
v 0.532502 3.091712 -0.470573
v 0.532502 -3.091712 -0.470573
v 0.532502 3.091712 0.470573
v 0.532502 -3.091712 0.470573
v -0.532502 3.091712 -0.470573
v -0.532502 -3.091712 -0.470573
v -0.532502 3.091712 0.470573
v -0.532502 -3.091712 0.470573
v 1.095272 -3.028517 -1.060206
v 1.095272 -3.210685 -1.060206
v 1.095272 -3.028517 1.060206
v 1.095272 -3.210685 1.060206
v -1.095272 -3.028517 -1.060206
v -1.095272 -3.210685 -1.060206
v -1.095272 -3.028517 1.060206
v -1.095272 -3.210685 1.060206
vn -0.0000 1.0000 -0.0000
vn -0.0000 -0.0000 1.0000
vn -1.0000 -0.0000 -0.0000
vn -0.0000 -1.0000 -0.0000
vn 1.0000 -0.0000 -0.0000
vn -0.0000 -0.0000 -1.0000
vt 0.625000 0.500000
vt 0.375000 0.500000
vt 0.625000 0.750000
vt 0.375000 0.750000
vt 0.875000 0.500000
vt 0.625000 0.250000
vt 0.125000 0.500000
vt 0.375000 0.250000
vt 0.875000 0.750000
vt 0.625000 1.000000
vt 0.625000 0.000000
vt 0.375000 0.000000
vt 0.375000 1.000000
vt 0.125000 0.750000
vt 0.625000 0.500000
vt 0.375000 0.500000
vt 0.625000 0.750000
vt 0.375000 0.750000
vt 0.875000 0.500000
vt 0.625000 0.250000
vt 0.125000 0.500000
vt 0.375000 0.250000
vt 0.875000 0.750000
vt 0.625000 1.000000
vt 0.625000 0.000000
vt 0.375000 0.000000
vt 0.375000 1.000000
vt 0.125000 0.750000
vt 0.625000 0.500000
vt 0.375000 0.500000
vt 0.625000 0.750000
vt 0.375000 0.750000
vt 0.875000 0.500000
vt 0.625000 0.250000
vt 0.125000 0.500000
vt 0.375000 0.250000
vt 0.875000 0.750000
vt 0.625000 1.000000
vt 0.625000 0.000000
vt 0.375000 0.000000
vt 0.375000 1.000000
vt 0.125000 0.750000
s 0
usemtl Material.001
f 5/5/1 3/3/1 1/1/1
f 3/3/2 8/13/2 4/4/2
f 7/11/3 6/8/3 8/12/3
f 2/2/4 8/14/4 6/7/4
f 1/1/5 4/4/5 2/2/5
f 5/6/6 2/2/6 6/8/6
f 5/5/1 7/9/1 3/3/1
f 3/3/2 7/10/2 8/13/2
f 7/11/3 5/6/3 6/8/3
f 2/2/4 4/4/4 8/14/4
f 1/1/5 3/3/5 4/4/5
f 5/6/6 1/1/6 2/2/6
usemtl Material
f 13/19/1 11/17/1 9/15/1
f 11/17/2 16/27/2 12/18/2
f 15/25/3 14/22/3 16/26/3
f 10/16/4 16/28/4 14/21/4
f 9/15/5 12/18/5 10/16/5
f 13/20/6 10/16/6 14/22/6
f 13/19/1 15/23/1 11/17/1
f 11/17/2 15/24/2 16/27/2
f 15/25/3 13/20/3 14/22/3
f 10/16/4 12/18/4 16/28/4
f 9/15/5 11/17/5 12/18/5
f 13/20/6 9/15/6 10/16/6
usemtl Material.002
f 21/33/1 19/31/1 17/29/1
f 19/31/2 24/41/2 20/32/2
f 23/39/3 22/36/3 24/40/3
f 18/30/4 24/42/4 22/35/4
f 17/29/5 20/32/5 18/30/5
f 21/34/6 18/30/6 22/36/6
f 21/33/1 23/37/1 19/31/1
f 19/31/2 23/38/2 24/41/2
f 23/39/3 21/34/3 22/36/3
f 18/30/4 20/32/4 24/42/4
f 17/29/5 19/31/5 20/32/5
f 21/34/6 17/29/6 18/30/6
